<svg width="14" height="18" viewBox="0 -4 32 32" fill="none" xmlns="http://www.w3.org/2000/svg">
<path fill-rule="evenodd" clip-rule="evenodd" d="M16 32C24.8366 32 32 24.8366 32 16C32 7.16344 24.8366 0 16 0C7.16344 0 0 7.16344 0 16C0 22.7805 4.2177 28.5759 10.1727 30.9057L10.1858 30.8649C10.0444 29.5989 9.9191 27.6618 10.2379 26.2818C10.5306 25.0317 12.1175 18.3385 12.1175 18.3385C12.1175 18.3385 11.6373 17.3745 11.6373 15.9635C11.6373 13.7444 12.9324 12.0833 14.5354 12.0833C15.9037 12.0833 16.5663 13.1044 16.5663 14.3334C16.5663 15.2108 16.2086 16.3679 15.8321 17.5859C15.6207 18.2698 15.4034 18.973 15.2401 19.6566C14.8591 21.2456 16.039 22.5417 17.6109 22.5417C20.4568 22.5417 22.6491 19.5466 22.6491 15.2234C22.6491 11.4103 19.8924 8.73323 15.9558 8.73323C11.3977 8.73323 8.72419 12.1503 8.72419 15.6655C8.72419 17.0405 9.25148 18.5195 9.91509 19.3166C10.0454 19.4776 10.0615 19.6186 10.0244 19.7806C9.95825 20.0554 9.84642 20.5111 9.75044 20.9023C9.67177 21.2228 9.60376 21.5 9.58028 21.5986C9.5071 21.8956 9.35072 21.9576 9.04297 21.8176C7.04811 20.8956 5.79004 17.9785 5.79004 15.6245C5.79004 10.5883 9.466 5.95215 16.3788 5.95215C21.9344 5.95215 26.2569 9.91027 26.2569 15.1814C26.2569 20.6976 22.7744 25.1347 17.9296 25.1347C16.3057 25.1347 14.781 24.2957 14.2436 23.2957L13.2412 27.0928C12.882 28.4813 11.9026 30.2214 11.24 31.28C12.7436 31.7479 14.3424 32 16 32Z" fill="#f1f4f8"/>
</svg>
