<svg width="14" height="18" viewBox="0 -4 32 32" fill="none" xmlns="http://www.w3.org/2000/svg">
<path fill-rule="evenodd" clip-rule="evenodd" d="M16 32C24.8364 32 32 24.8369 32 16C32 7.16309 24.8364 0 16 0C7.16357 0 0 7.16309 0 16C0 24.8369 7.16357 32 16 32ZM11.4141 21.5898C11.4141 24.2422 13.3516 28 18.4453 28L18.4336 27.9961H18.6133C20.3677 27.9688 22.3325 27.2305 22.77 26.5938L21.6133 23.168C21.3936 23.2734 21.0767 23.3711 20.7363 23.4463C20.3809 23.5244 19.9995 23.5781 19.6763 23.5898H19.5864C17.7539 23.5898 17.3945 22.2188 17.3789 21.2197V13.7461H22.1992V10.1133H17.3984V4H13.8823C13.8242 4 13.7227 4.05078 13.707 4.17969C13.5122 6.05078 12.6294 9.33594 9 10.6484V13.7461H11.4141V21.5898Z" fill="#f1f4f8"/>
</svg>
