<svg width="14" height="18" viewBox="0 -4 32 32" fill="none" xmlns="http://www.w3.org/2000/svg">
<path fill-rule="evenodd" clip-rule="evenodd" d="M16 32C24.8364 32 32 24.8369 32 16C32 7.16309 24.8364 0 16 0C7.16357 0 0 7.16309 0 16C0 24.8369 7.16357 32 16 32ZM21.769 24.5469L24.938 9.60254C25.2192 8.28516 24.4648 7.77051 23.6021 8.09375L4.97461 15.2705C4.64111 15.4014 4.39648 15.5469 4.23584 15.6963C3.78369 16.1152 3.99414 16.5654 4.7583 16.8037L9.521 18.2949L20.5835 11.3281C21.103 10.9814 21.5771 11.1738 21.188 11.5205L12.2397 19.6064L11.8926 24.5234C12.3896 24.5234 12.605 24.3076 12.8628 24.0498L15.1924 21.8086L20.021 25.3672C20.9067 25.8633 21.5298 25.6006 21.769 24.5469Z" fill="#f1f4f8"/>
</svg>
