<svg width="14" height="18" viewBox="0 -4 32 32" fill="none" xmlns="http://www.w3.org/2000/svg">
<path fill-rule="evenodd" clip-rule="evenodd" d="M16 32C24.8366 32 32 24.8366 32 16C32 7.16344 24.8366 0 16 0C7.16344 0 0 7.16344 0 16C0 24.8366 7.16344 32 16 32ZM26.1305 10.0983C27.1265 9.9775 28.0715 9.71125 28.9543 9.32425L29 9.343C28.34 10.3308 27.5045 11.2022 26.5392 11.89C26.555 12.1015 26.555 12.3123 26.555 12.5192C26.555 19.0112 21.6095 26.5075 12.5592 26.5075C9.77 26.5075 7.18775 25.6915 5 24.2965C5.3915 24.3438 5.7815 24.3625 6.17225 24.3625C8.46575 24.3625 10.5942 23.578 12.2735 22.2618C10.1135 22.219 8.3015 20.797 7.6685 18.844C7.96925 18.8995 8.27075 18.9303 8.5865 18.9303C9.03125 18.9303 9.46925 18.8673 9.8795 18.7585C7.6295 18.3055 5.9345 16.3165 5.9345 13.9307V13.8715C6.59825 14.2383 7.35575 14.461 8.1605 14.4843C6.84425 13.6023 5.9735 12.1023 5.9735 10.3915C5.9735 9.47725 6.21575 8.63725 6.64175 7.91425C9.0665 10.8827 12.692 12.8477 16.7817 13.039C16.7 12.6835 16.6528 12.3085 16.6528 11.9177C16.6528 9.20275 18.8563 7 21.575 7C22.9932 7 24.2713 7.60225 25.1653 8.55925C26.2865 8.332 27.341 7.93 28.2943 7.375C27.9237 8.524 27.1468 9.4885 26.1305 10.0983Z" fill="#f1f4f8"/>
</svg>
