<svg width="430" height="500" viewBox="0 0 430 500" fill="none" xmlns="http://www.w3.org/2000/svg">
<path d="M318.712 145.839C326.572 138.105 326.572 125.566 318.712 117.832L204.853 5.80059C196.993 -1.93353 184.249 -1.93353 176.388 5.8006L62.5293 117.832C54.669 125.566 54.669 138.105 62.5293 145.839L72.9436 156.086C85.6233 168.563 76.643 189.895 58.7112 189.895H20.1276C9.01144 189.895 0 198.761 0 209.699V368.135C0 379.073 9.01146 387.939 20.1276 387.939H136.806C145.916 387.939 153.89 393.96 156.247 402.618L178.768 485.316C181.645 495.881 192.682 502.151 203.419 499.32L314.053 470.152C322.745 467.86 327.903 459.07 325.574 450.517C321.817 436.721 336.887 425.343 349.458 432.484L369.614 443.934C379.241 449.403 391.551 446.158 397.109 436.685L427.3 385.232C432.858 375.76 429.56 363.647 419.933 358.178L367.64 328.472C358.013 323.003 345.703 326.248 340.145 335.721L333.137 347.664C324.171 362.944 300.905 359.93 296.264 342.888L295.93 341.66C293.053 331.095 282.016 324.825 271.278 327.656L226.613 339.432C213.83 342.802 201.276 333.324 201.276 320.302V269.593C201.276 264.341 203.397 259.303 207.171 255.589L318.712 145.839Z" fill="#001733"/>
</svg>
