<svg width="430" height="500" viewBox="0 0 430 500" fill="none" xmlns="http://www.w3.org/2000/svg">
<path d="M39.6274 435.061C36.6435 445.466 43.2521 456.16 54.3882 458.948L215.697 499.331C226.833 502.118 238.28 495.944 241.264 485.54L269.958 385.486C273.511 373.099 288.672 367.232 300.559 373.644L315.184 381.533C325.169 386.918 337.936 383.722 343.7 374.394L427.2 239.271C432.964 229.942 429.543 218.014 419.559 212.628L296.531 146.265C288.247 141.796 288.247 130.624 296.531 126.155C302.475 122.949 304.511 115.848 301.08 110.295L239.45 10.562C233.685 1.23369 220.919 -1.96243 210.934 3.42328L137.01 43.2992C125.123 49.7112 109.961 43.8437 106.409 31.4566L101.535 14.4604C98.5507 4.05599 87.1042 -2.11845 75.9681 0.669402L15.4773 15.8129C4.34121 18.6008 -2.26742 29.2952 0.716476 39.6996L16.925 96.2161C19.9088 106.621 31.3553 112.795 42.4914 110.007L94.2476 97.0502C103.374 94.7656 113.005 98.4927 117.729 106.137L163.884 180.829C168.205 187.82 177.773 190.215 185.255 186.179C199.117 178.702 214.629 193.195 206.626 206.146L167.006 270.262C162.282 277.906 152.651 281.633 143.525 279.349L108.416 270.559C97.2804 267.772 85.8339 273.946 82.85 284.35L39.6274 435.061Z" fill="#001733"/>
</svg>
