<svg width="1481" height="100" viewBox="0 0 1481 100" fill="none" xmlns="http://www.w3.org/2000/svg">
<path fill-rule="evenodd" clip-rule="evenodd" d="M660 0L560 9.53674e-06L560 100H585V62H610L610 100L660 100V0ZM585 25L610 25L610 37H585L585 25Z" fill="black"/>
<path d="M1033 50L1033 0L933 1.31134e-05L933 100L1033 100V75L983 75L983 50L1033 50Z" fill="black"/>
<path d="M1369 50L1369 0L1269 1.31134e-05L1269 100L1369 100V75L1319 75L1319 50L1369 50Z" fill="black"/>
<path d="M548 50L548 0L448 1.31134e-05L448 100L548 100V75L498 75L498 50L548 50Z" fill="black"/>
<path d="M1257 25H1232V75H1257V100H1157V75H1182V25H1157V0H1257V25Z" fill="black"/>
<path d="M1381 0H1431V24.9805L1455.98 0H1481V25.0186L1456.02 50L1481 74.9814V100H1455.98L1431 75.0195V100H1381V0Z" fill="black"/>
<path d="M1045 0H1095V75H1145V100H1045V0Z" fill="black"/>
<path d="M224 100H249V50L274 75L299 50V100H324V0H299L274 25L249 0H224V100Z" fill="black"/>
<path d="M336 0H436V50H411V37H361V62H386V100H336V0Z" fill="black"/>
<path fill-rule="evenodd" clip-rule="evenodd" d="M-6.10352e-05 0L75 0V25H100L100 75H75V100L-6.10352e-05 100L-6.10352e-05 0ZM25 62L75 62V37L25 37L25 62Z" fill="black"/>
<path fill-rule="evenodd" clip-rule="evenodd" d="M884 0V25H834L884 75V100H784V50H809L784 25V0H884Z" fill="black"/>
<path d="M672 0H722V37H772V62H722V75H772V100H672V0Z" fill="black"/>
<path d="M112 0H162V75H187V0H212V100H112V0Z" fill="black"/>
<path d="M896 75H921V100H896V75Z" fill="black"/>
</svg>
